<svg width="187" height="40" viewBox="0 0 187 40" fill="none" xmlns="http://www.w3.org/2000/svg">
<path fill-rule="evenodd" clip-rule="evenodd" d="M21.6839 0.275393L38.1092 6.80882C39.565 7.38753 40.5054 8.76262 40.5054 10.3114V29.689C40.5054 31.2378 39.565 32.6129 38.1095 33.1916L21.6839 39.7246C21.2225 39.9083 20.7378 40 20.2527 40C19.768 40 19.2836 39.9083 18.8222 39.725L2.39657 33.1916C0.940739 32.6129 0 31.2378 0 29.689V10.3114C0 8.76262 0.940739 7.38753 2.39623 6.80882L18.8219 0.275393C19.7451 -0.0919644 20.7611 -0.091631 21.6839 0.275393ZM20.2527 4.45633L4.46539 10.7357V29.2646L20.2527 35.5437L36.0404 29.2646V10.7357L20.2527 4.45633ZM92.6951 14.1441C97.2496 14.1441 103.312 16.0674 103.312 22.7678C103.312 29.4368 97.2496 31.3911 92.6951 31.3911C88.1403 31.3911 82.078 29.4368 82.078 22.7678C82.078 16.0674 88.1089 14.1441 92.6951 14.1441ZM126.224 14.1442C130.811 14.1442 136.308 15.4779 136.308 23.4812V24.4735H121.167C121.858 26.8622 124.12 27.5445 126.413 27.5445C128.863 27.5445 130.434 27.0172 131.219 25.5595L135.9 27.2345C134.423 29.7472 131.879 31.3909 126.193 31.3909C120.916 31.3909 115.765 29.3129 115.765 22.7679C115.765 16.1915 121.639 14.1442 126.224 14.1442ZM148.24 8.83957V14.4852H154.522V18.4866H148.24V24.6599C148.24 26.7069 148.868 27.1726 150.752 27.1726C151.444 27.1726 153.611 27.0172 154.114 26.9246V30.9259C153.768 31.0192 151.098 31.3296 148.836 31.3296C144.187 31.3296 142.805 29.3442 142.805 25.9626V18.4866H138.157V14.4852H142.805V8.83957H148.24ZM178.016 14.1442C183.984 14.1442 186.56 16.3775 186.56 20.8752V27.0795C186.56 29.0648 186.686 30.1815 187 31.0502H181.629C181.471 30.6778 181.283 29.8092 181.252 29.1268C179.587 30.5538 176.069 31.3295 173.179 31.3295C170.257 31.3295 167.148 30.0882 167.148 26.3348C167.148 21.7752 172.896 20.6892 181.252 20.3478V19.9758C181.252 18.9832 180.184 18.3008 177.199 18.3008C174.844 18.3008 171.608 19.1692 170.195 20.0998L167.776 16.7498C169.346 15.5402 172.613 14.1442 178.016 14.1442ZM69.9327 8.09514L70.178 8.09599C74.1892 8.12416 78.3828 8.87736 78.3828 13.7718C78.3828 17.0598 76.2465 18.5488 74.0477 19.0761C76.6549 19.5725 79.011 20.8445 79.011 24.7528C79.011 29.5921 74.5503 31.0501 70.4981 31.0501H54.1325V8.09514H69.9327ZM112.282 8.09514V31.0501H106.879V8.09514H112.282ZM163.731 14.4855V31.0501H158.328V14.4855H163.731ZM28.9013 16.0524C28.9013 18.2878 27.5478 19.2896 25.9617 19.6239C27.9073 19.9793 29.2396 20.8983 29.2396 23.4042C29.2396 26.8711 25.9195 27.7275 23.3605 27.7275H11.941V12.2728H23.1914C25.6869 12.2728 28.9013 12.6068 28.9013 16.0524ZM181.252 23.5742C175.692 23.8535 172.425 24.3808 172.425 25.9315C172.425 26.8622 173.367 27.3588 175.189 27.3588C177.262 27.3588 180.372 26.6762 181.252 26.1178V23.5742ZM92.6951 18.3938C89.6478 18.3938 87.5121 19.9758 87.5121 22.8294C87.5121 25.4351 89.6167 27.2344 92.6951 27.2344C95.7735 27.2344 97.8468 25.6214 97.8468 22.8294C97.8468 20.1618 95.7422 18.3938 92.6951 18.3938ZM69.5874 21.3718H59.5353V26.8001H69.7443C72.4457 26.8001 73.6396 25.8075 73.6396 24.0708C73.6396 22.2711 72.3829 21.3718 69.5874 21.3718ZM22.7472 21.441H16.4668V24.3232H22.7263C24.1642 24.3232 24.7563 23.8012 24.7563 22.8405C24.7563 21.9214 24.1855 21.441 22.7472 21.441ZM126.224 18.0835C124.56 18.0835 122.047 18.7352 121.23 21.0615H131.062C130.685 18.8282 128.926 18.0835 126.224 18.0835ZM22.7685 15.7397H16.4668V18.3292H22.6841C24.0795 18.3292 24.5237 17.7861 24.5237 17.0344C24.5237 16.2827 24.0795 15.7397 22.7685 15.7397ZM69.4618 12.4068H59.5353V17.4011H69.5246C71.9745 17.4011 73.1367 16.4398 73.1367 14.9195C73.1367 13.2755 72.0687 12.4068 69.4618 12.4068ZM163.762 8.31214V12.5621H158.296V8.31214H163.762Z" fill="#ED6B2C"/>
</svg>
